
<svg width="78px" height="51px" viewBox="0 0 78 51" version="1.1" xmlns="http://www.w3.org/2000/svg" xmlns:xlink="http://www.w3.org/1999/xlink">
    <g id="Welcome" stroke="none" stroke-width="1" fill="none" fill-rule="evenodd">
        <g id="desktop-landing-page-copy" transform="translate(-541.000000, -51.000000)" fill="#C3C3C3">
            <g id="Group" transform="translate(541.000000, 51.000000)">
                <g id="code">
                    <path d="M48.010487,0.687913565 L45.4008851,0.0564282681 C45.0649943,-0.0424445842 44.7341146,-0.0113516741 44.4123728,0.149446807 C44.0895992,0.310375384 43.8716166,0.551963393 43.7596038,0.873820547 L28.0639671,48.8255928 C27.9519543,49.1475801 27.987032,49.4512238 28.1693475,49.7356133 C28.3516629,50.0205233 28.6247677,50.2124147 28.9899881,50.3112875 L31.5988531,50.943033 C31.9354808,51.0426864 32.2651815,51.0114634 32.5878076,50.8504047 C32.9105811,50.6886956 33.1281217,50.4478882 33.239987,50.1265514 L48.9360659,2.17399856 C49.0479313,1.8521414 49.0131484,1.54849767 48.8305381,1.26345764 C48.6480753,0.978547713 48.3752653,0.786656321 48.010487,0.687913565 Z" id="Path"></path>
                    <path d="M25,10.0775764 C25,9.75631379 24.8566201,9.47180029 24.5703118,9.22481504 L22.4223221,7.37099729 C22.1360138,7.12388219 21.806526,7 21.4343101,7 C21.0620942,7 20.7324559,7.12401204 20.446298,7.37099729 L0.429688205,24.6474984 C0.1429285,24.8946135 0,25.1789971 0,25.5002597 C0,25.8215223 0.143379853,26.105906 0.429688205,26.3528912 L20.4461476,43.6293923 C20.7323055,43.8768969 21.0613419,44 21.4341596,44 C21.8069773,44 22.1360138,43.8765074 22.4221717,43.6293923 L24.5701613,41.7766134 C24.8564697,41.5296281 24.9998495,41.2451146 24.9998495,40.9234624 C24.9998495,40.6025894 24.8564697,40.3182057 24.5701613,40.0712205 L7.68910193,25.5002597 L24.5703118,10.9303378 C24.8570715,10.6833525 25,10.398839 25,10.0775764 Z" id="Path"></path>
                    <path d="M77.5705843,24.6473125 L57.5521979,7.37099338 C57.2660211,7.12401074 56.936361,7 56.5647223,7 C56.1918799,7 55.8634235,7.12401074 55.5761935,7.37099338 L53.4289643,9.22466176 C53.1427875,9.47177426 53,9.75576535 53,10.0774141 C53,10.3990629 53.142637,10.6831839 53.4289643,10.9301665 L70.3115927,25.5003246 L53.4289643,40.0712619 C53.1427875,40.3182445 53,40.602755 53,40.9234948 C53,41.2452735 53.142637,41.5296541 53.4289643,41.7766368 L55.5761935,43.6293962 C55.8634235,43.8768982 56.1920304,44 56.5647223,44 C56.9365115,44 57.2660211,43.8765087 57.5521979,43.6293962 L77.5705843,26.3532069 C77.8569116,26.1062242 78,25.8213242 78,25.5000649 C78,25.1786758 77.8569116,24.8942952 77.5705843,24.6473125 Z" id="Path"></path>
                </g>
            </g>
        </g>
    </g>
</svg>