
<svg width="40px" height="52px" viewBox="0 0 40 52" version="1.1" xmlns="http://www.w3.org/2000/svg" xmlns:xlink="http://www.w3.org/1999/xlink">
    <g id="Welcome" stroke="none" stroke-width="1" fill="none" fill-rule="evenodd" fill-opacity="0.82">
        <g id="desktop-landing-page" transform="translate(-630.000000, -52.000000)" fill="#F8F8F8">
            <g id="Group" transform="translate(356.000000, 52.000000)">
                <g id="peace" transform="translate(274.000000, 0.000000)">
                    <path d="M36.6855141,3.2737819 C35.4449785,2.87268917 34.1130041,2.95005129 32.9348324,3.49237944 C31.7596104,4.03272387 30.8776672,4.9709872 30.4503903,6.13419583 L23.410014,23.9861935 C23.4079071,23.9917477 23.4053788,23.9976986 23.403272,24.0036496 C23.3687189,24.0984678 23.2675883,24.153613 23.1635081,24.1357602 C23.0636417,24.1187008 22.9903219,24.0365781 22.9886364,23.940173 L22.7088417,4.56394361 C22.692408,3.32932392 22.1661074,2.17444667 21.2272782,1.31275195 C20.288449,0.450660521 19.0508631,-0.0150990157 17.7378506,0.000373454161 C16.4265237,0.0158458732 15.1998936,0.511359986 14.2846615,1.39527151 C13.3690081,2.27957975 12.8738894,3.44596221 12.8907445,4.6805819 L12.9434167,8.60383192 C12.949316,9.02476104 13.3146504,9.36237718 13.7625747,9.35602952 C14.2092349,9.35047527 14.5669844,9.00532136 14.5615065,8.58478894 L14.5088344,4.66153892 C14.4974571,3.83396282 14.8295027,3.05161383 15.4430284,2.45890122 C16.0569755,1.8661885 16.8790831,1.53412661 17.7580768,1.52381161 C18.6370703,1.51270321 19.4684482,1.82572212 20.0979864,2.4033591 C20.727103,2.98139288 21.079796,3.75541048 21.0911732,4.58378 L21.3709679,23.9604062 C21.3819238,24.7820312 22.0131473,25.485828 22.8714935,25.6342046 C23.7656567,25.788532 24.6299021,25.3156314 24.9299229,24.5090819 L31.9707206,6.65629069 C31.9728274,6.65033983 31.9749343,6.64438888 31.9774626,6.63843792 C32.2627352,5.85569224 32.8551921,5.22449686 33.645275,4.86109338 C34.4353579,4.49768989 35.328257,4.44571851 36.1596349,4.71470052 C37.8759058,5.27012069 38.7924019,7.03635683 38.2028948,8.65262947 L30.1849224,30.6238613 C30.1849224,30.6238613 24.8511253,27.6428419 24.8507039,27.6428419 C23.7176197,27.0096629 22.3384508,26.8081247 21.0545135,27.0838512 C20.6360855,27.1735119 20.228192,27.3099866 19.8460025,27.4940687 L18.5582727,23.339129 C18.1642847,22.0676136 17.2077576,20.9885115 15.9625869,20.3759624 C15.5774479,20.1867228 15.1687117,20.0446939 14.7456485,19.9518595 C14.7351141,19.949479 14.725001,19.946702 14.7140453,19.9443216 L14.6019588,11.6118288 C14.5964809,11.1912964 14.232832,10.8544738 13.7828008,10.8596312 C13.3361406,10.8651855 12.9783911,11.2103394 12.9842904,11.6312686 L13.0946913,19.8475198 C12.7693878,19.8768778 12.447034,19.9348001 12.1310007,20.0212869 C10.3658502,20.5064861 9.08359821,21.8029955 8.60575611,23.3538079 C7.67956817,22.5881216 6.47147878,22.1322804 5.18711997,22.1322804 C3.30819739,22.1322804 1.54304681,23.1173577 0.640456013,24.6673767 C-0.0248991856,25.810352 -0.177859268,27.1286815 0.20980809,28.3799638 L2.93527827,37.1734553 C2.9243224,37.7566464 2.91842317,40.2639717 3.51972887,43.164852 C4.58117898,48.2838423 9.39710312,51.9996033 14.9710855,51.9996033 C14.9710855,51.9996033 22.780476,52 22.7808973,52 C27.9263387,52 32.5673912,48.7063583 34.0004963,44.0610621 C34.7623469,41.5894424 35.1293668,39.4847967 35.219963,38.9258059 C36.5612078,36.6323173 35.7340436,33.7242961 33.3254495,32.3781955 L31.6066503,31.4177154 L39.7333381,9.14735018 C40.612753,6.73682664 39.2453828,4.10215141 36.6855141,3.2737819 Z M10.4568677,23.0923638 C10.9144838,22.3064442 11.6700137,21.7351549 12.5839817,21.4840256 C14.0259357,21.0876936 15.6237994,21.6193102 16.4926799,22.7714103 C16.7193811,23.0725273 16.8946742,23.4113337 17.0046537,23.7656124 L18.4613559,28.464467 C18.4284885,28.496602 18.3977279,28.5307207 18.3661245,28.5636492 C17.3404916,29.6280722 16.862228,31.099539 17.0767093,32.5218114 C17.2688574,33.7941203 18.0020543,34.9720078 19.0951078,35.7428517 C18.8974817,35.9701772 18.6674095,36.1705251 18.4154258,36.3434989 C17.8200192,36.7521295 17.0762878,36.9699335 16.3414054,36.9699335 C14.7688243,36.9699335 13.3626874,35.9765248 12.9210837,34.5526656 L10.1606393,25.6461064 C9.89390729,24.7856019 9.99883028,23.87868 10.4568677,23.0923638 Z M2.05923429,25.3997379 C2.67865926,24.3361083 3.89896868,23.6557185 5.18711997,23.6557185 C6.75970093,23.6557185 8.16583793,24.6495239 8.60702016,26.0729864 C8.60702016,26.0729864 11.3662005,34.9747849 11.367886,34.9795456 C11.868904,36.5970085 10.9654705,38.384668 9.2951298,39.0261782 C7.37196261,39.7652838 5.10495132,38.7357729 4.52345028,36.8600397 L1.76300584,27.9530837 C1.49627387,27.0925791 1.60161821,26.1856574 2.05923429,25.3997379 Z M32.4460345,43.6361657 C31.2113982,47.6411418 27.2108396,50.4765618 22.780476,50.4765618 L14.9710855,50.4761651 C10.1690668,50.4761651 6.02102608,47.2785318 5.10747953,42.8728596 C4.86687302,41.7120315 4.72908253,40.6067453 4.65112771,39.6799871 C4.65534143,39.6831609 4.65955515,39.6859381 4.66376898,39.6891119 C5.9738318,40.7039439 7.76974302,41.0514783 9.39752458,40.604365 C11.0666011,40.1461434 12.4053176,38.8865297 12.9071783,37.3218318 C12.9122348,37.3055659 12.9189768,37.2893001 12.9240334,37.2730342 C12.9261402,37.2746211 12.9286684,37.2766047 12.9311968,37.2785884 C13.6180422,37.8447202 14.4616401,38.2370849 15.3574888,38.4029175 C16.1572634,38.5508973 17.005075,38.5143983 17.795158,38.2969909 C18.8570295,38.0049986 19.8181916,37.3853083 20.4818613,36.5505912 C20.4818613,36.5505912 28.03379,40.7709911 28.0342113,40.7709911 C29.5638119,41.6259414 31.485715,41.6723587 33.0629312,40.9015148 C33.1067545,40.8800915 33.1514204,40.860255 33.1948224,40.8376415 C33.0106804,41.6410171 32.7645959,42.6042743 32.4460345,43.6361657 Z M33.7451415,38.2878662 C32.7797655,39.8192389 30.6176772,40.3730722 28.9599779,39.5145513 C28.9262677,39.4970952 20.6322931,34.8629074 20.6310289,34.8621139 C19.5649438,34.2666241 18.6471834,33.2704384 18.6471834,32.0314547 C18.5784988,30.9301359 19.1224973,29.8252464 20.0587983,29.161916 C20.059641,29.1611226 20.0609051,29.1603292 20.0617478,29.1599324 C21.2036811,28.3799638 22.7889034,28.2621354 24.0248039,28.9528401 L32.4991281,33.6885904 C34.1896948,34.6332014 34.7484415,36.6965873 33.7451415,38.2878662 Z" id="Shape"></path>
                </g>
            </g>
        </g>
    </g>
</svg>